<svg xmlns="http://www.w3.org/2000/svg" viewBox="0 0 517.52 241.48"><defs><style>.cls-1{fill:#fff;}.cls-2{fill:#974ec3;}</style></defs><g id="Слой_1" data-name="Слой 1"><path class="cls-1" d="M63.74,48.61c0,3.51-4,9.77-6.52,15.29-3,7-6.26,15-9,23.55L62,87.2H76c4,0,6,2.76,6,6.52C82,99.48,65.74,99,62,99H50.46l-6,.25c-7.52,25.06-12.78,53.12-12.78,74.67,0,6-.5,26.56,9.52,26.56,14.79,0,40.35-65.4,47.87-65.4,2.75,0,5.26,2.26,4.76,5C91.3,157.36,57.22,216,38.18,216c-23.56,0-27.82-30.32-27.82-47.36,0-22.3,5.27-46.36,12.28-69.16H15.88c-3.76,0-7.77-2.26-7.77-6.26,0-5,7.77-5.52,11.27-5.52h7c3-8.27,6-16.54,9.27-24.05,5.51-13.28,9.27-21.8,20.8-21.8C60.23,41.85,63.74,44.6,63.74,48.61Z"/><path class="cls-1" d="M79.52,160.12c0-25.31,14.53-42.85,35.83-42.85,9.78,0,17,3.76,19.55,10.27,4.76-8,5-15,17-15,7.27,0,11.78,2.51,11.78,6.77,0,9-19.05,45.6-19.05,65.4,0,4,.75,5.51,2.51,5.51,9.77,0,39.59-54.88,48.61-54.88,1.5,0,3.26,1.26,3.26,2.51,0,5-30.57,50.87-41.35,62.14-5,5.27-10.27,7.77-16.54,7.77-10.77,0-16.79-7-16.79-19.29,0-8.52,2.76-20.3,5-31.83-7.52,10.28-17.29,33.58-32.08,33.58C86.79,190.19,79.52,177.91,79.52,160.12Zm19.8,17.54c5.26,0,23.3-21,32.07-37.59-1.5-6-6.51-10.27-11.78-10.27-10.77,0-22.8,18.79-22.8,35.58C96.81,167.64,96.81,177.66,99.32,177.66Z"/><path class="cls-1" d="M186.76,137.32c0-24.81,17.8-45.86,43.35-45.86,17.29,0,26.57,9.27,26.57,26.56,0,7.52-5.27,19-14.29,19-3.25,0-5.26-2.51-5.26-5.77,0-5.76,3-11,3-16.79,0-7-4-10.52-9.77-10.52-12,0-22.81,19.8-22.81,30.32,0,10.78,12,16.29,24.06,24.56,19.54-12.28,39.59-21.3,48.86-23.56,2.51-.5,4.26,2.26,3.76,4.76-8.27,7.52-25.31,16.79-42.1,27.07,7.52,7,13,16.28,13,30.07,0,20.29-24.55,41.84-47.11,41.84-14.53,0-25.81-10.77-25.81-25.56,0-13.28,13-28.31,30.07-41.34C199.54,165.13,186.76,156.61,186.76,137.32ZM212.82,222c11.53,0,24.81-14.28,24.81-23.55s-5.76-14.78-13.28-19.55c-13.78,10-24.31,20.55-24.31,30.82A12.42,12.42,0,0,0,212.82,222Z"/><path class="cls-1" d="M301,147.59c-3,2.76-4.76,10.53-6.51,15.79-1.76,5.51-.25,20.8-11.53,20.8-9.52,0-8.52-18.55-8-25.06C277.72,128.8,299.52,0,339.11,0c15.54,0,19.3,8,18,22.55-2.25,27.57-26.31,60.64-50.86,77.93-4,13.78-7.27,25.56-9,32.08C307,116,322.32,96.47,341.12,96.47c11.27,0,15.78,12.28,15,22.56-1.75,19.29-19,31.07-37.84,31.07,5.52,6,8.27,44.1,13.28,44.1,9.53,0,43.35-59.14,50.62-59.14,4,0,5,1,4.76,5-1.5,15-39.34,69.16-57.63,69.16C304.28,209.23,306,149.85,301,147.59Zm10-6.76c8.52,0,31.32-14.54,32.07-23.31.25-3-1.5-6-4.51-6-8.27,0-23.55,20.29-29.32,28.56A1.94,1.94,0,0,0,311.05,140.83ZM341.62,27.56c.25-2,1-7.51-1.76-7.51-6.76,0-18.29,31.57-27.81,62.14C326.33,70.16,340.11,46.86,341.62,27.56Z"/><path class="cls-1" d="M372.94,159.62c0-22.8,14-57.13,41.09-57.13,10,0,15.29,5.51,15.29,15.28,0,16.79-16.54,38.84-34.08,39.84v1.26c0,6.51,3.26,16.28,11,16.28,13.78,0,34.58-29.81,41.1-40.09a6,6,0,0,1,4.76,2.51,5.5,5.5,0,0,1,.25,2c0,19.8-29.07,49.87-53.87,49.87C383.21,189.44,372.94,172.15,372.94,159.62ZM414,115c-8.52,0-17.29,25.81-17.79,32.57,7.77-.5,20.55-20,20.55-27.06C416.79,118.77,416.79,115,414,115Z"/><path class="cls-1" d="M438.08,159.62c0-22.8,14-57.13,41.1-57.13,10,0,15.28,5.51,15.28,15.28,0,16.79-16.53,38.84-34.07,39.84v1.26c0,6.51,3.25,16.28,11,16.28,13.78,0,34.58-29.81,41.1-40.09a6.06,6.06,0,0,1,4.76,2.51,5.5,5.5,0,0,1,.25,2c0,19.8-29.07,49.87-53.88,49.87C448.36,189.44,438.08,172.15,438.08,159.62Zm41.1-44.6c-8.52,0-17.29,25.81-17.79,32.57,7.77-.5,20.55-20,20.55-27.06C481.94,118.77,481.94,115,479.18,115Z"/><path class="cls-1" d="M410.61,82.09c0-5.77,3.9-9.82,9.35-9.82s9.2,4,9.2,9.82c0,5.61-3.58,9.82-9.35,9.82C414.35,91.91,410.61,87.7,410.61,82.09Z"/><path class="cls-1" d="M478.51,82.09c0-5.77,3.9-9.82,9.35-9.82s9.2,4,9.2,9.82c0,5.61-3.59,9.82-9.35,9.82C482.25,91.91,478.51,87.7,478.51,82.09Z"/></g><g id="Слой_2" data-name="Слой 2"><path class="cls-2" d="M55.63,51c0,3.51-4,9.77-6.52,15.28-3,7-6.26,15-9,23.56l13.79-.25h14c4,0,6,2.75,6,6.51,0,5.76-16.29,5.26-20,5.26H42.35l-6,.25c-7.51,25.06-12.78,53.13-12.78,74.68,0,6-.5,26.56,9.53,26.56,14.78,0,40.34-65.4,47.86-65.4,2.75,0,5.26,2.25,4.76,5-2.51,17.29-36.59,75.92-55.63,75.92-23.55,0-27.81-30.32-27.81-47.36,0-22.3,5.26-46.35,12.27-69.16H7.77C4,101.9,0,99.65,0,95.64c0-5,7.77-5.51,11.28-5.51h7c3-8.27,6-16.54,9.27-24.06,5.52-13.28,9.28-21.8,20.8-21.8C52.12,44.27,55.63,47,55.63,51Z"/><path class="cls-2" d="M71.41,162.54c0-25.3,14.54-42.84,35.84-42.84,9.77,0,17,3.75,19.54,10.27,4.76-8,5-15,17-15,7.27,0,11.78,2.5,11.78,6.76,0,9-19.05,45.61-19.05,65.4,0,4,.76,5.51,2.51,5.51,9.77,0,39.59-54.87,48.61-54.87,1.51,0,3.26,1.25,3.26,2.5,0,5-30.57,50.87-41.35,62.15-5,5.26-10.27,7.76-16.53,7.76-10.78,0-16.79-7-16.79-19.29,0-8.52,2.75-20.3,5-31.82-7.52,10.27-17.29,33.57-32.08,33.57C78.68,192.61,71.41,180.34,71.41,162.54Zm19.8,17.55c5.26,0,23.3-21.05,32.07-37.59-1.5-6-6.51-10.27-11.77-10.27-10.78,0-22.81,18.79-22.81,35.58C88.7,170.06,88.7,180.09,91.21,180.09Z"/><path class="cls-2" d="M178.66,139.74c0-24.8,17.79-45.85,43.35-45.85,17.29,0,26.56,9.27,26.56,26.56,0,7.52-5.26,19-14.29,19-3.25,0-5.26-2.5-5.26-5.76,0-5.76,3-11,3-16.79,0-7-4-10.52-9.77-10.52-12,0-22.81,19.79-22.81,30.32,0,10.77,12,16.28,24.06,24.55C243.06,149,263.1,140,272.37,137.74c2.51-.5,4.26,2.25,3.76,4.76-8.27,7.52-25.31,16.79-42.1,27.06,7.52,7,13,16.29,13,30.07,0,20.3-24.55,41.85-47.1,41.85-14.54,0-25.81-10.78-25.81-25.56,0-13.28,13-28.32,30.07-41.35C191.44,167.56,178.66,159,178.66,139.74Zm26.06,84.7c11.52,0,24.8-14.29,24.8-23.56s-5.76-14.78-13.28-19.54c-13.78,10-24.3,20.55-24.3,30.82A12.41,12.41,0,0,0,204.72,224.44Z"/><path class="cls-2" d="M292.92,150c-3,2.75-4.77,10.52-6.52,15.78-1.75,5.51-.25,20.8-11.53,20.8-9.52,0-8.52-18.54-8-25.06C269.61,131.22,291.41,2.42,331,2.42c15.54,0,19.3,8,18.05,22.56-2.26,27.56-26.31,60.64-50.87,77.93-4,13.78-7.27,25.56-9,32.07,9.77-16.54,25-36.08,43.85-36.08,11.28,0,15.78,12.28,15,22.55-1.75,19.29-19,31.07-37.83,31.07,5.51,6,8.27,44.1,13.28,44.1,9.52,0,43.35-59.13,50.61-59.13,4,0,5,1,4.77,5-1.51,15-39.35,69.16-57.64,69.16C296.17,211.66,297.93,152.27,292.92,150Zm10-6.77c8.52,0,31.32-14.53,32.07-23.3.25-3-1.5-6-4.51-6-8.27,0-23.55,20.3-29.31,28.57A2,2,0,0,0,302.94,143.25ZM333.51,30c.25-2,1-7.52-1.75-7.52-6.77,0-18.3,31.57-27.82,62.14C318.22,72.59,332,49.28,333.51,30Z"/><path class="cls-2" d="M364.83,162c0-22.8,14-57.13,41.09-57.13,10,0,15.29,5.51,15.29,15.29,0,16.79-16.54,38.84-34.08,39.84v1.25c0,6.52,3.26,16.29,11,16.29,13.78,0,34.58-29.82,41.09-40.09A6,6,0,0,1,444,140a5.56,5.56,0,0,1,.25,2c0,19.79-29.06,49.86-53.87,49.86C375.1,191.86,364.83,174.57,364.83,162Zm41.09-44.6c-8.52,0-17.29,25.81-17.79,32.58,7.77-.5,20.55-20.05,20.55-27.07C408.68,121.2,408.68,117.44,405.92,117.44Z"/><path class="cls-2" d="M430,162c0-22.8,14-57.13,41.09-57.13,10,0,15.29,5.51,15.29,15.29,0,16.79-16.54,38.84-34.08,39.84v1.25c0,6.52,3.26,16.29,11,16.29,13.79,0,34.58-29.82,41.1-40.09a6.06,6.06,0,0,1,4.76,2.5,5.56,5.56,0,0,1,.25,2c0,19.79-29.07,49.86-53.87,49.86C440.25,191.86,430,174.57,430,162Zm41.09-44.6c-8.52,0-17.29,25.81-17.79,32.58,7.77-.5,20.55-20.05,20.55-27.07C473.83,121.2,473.83,117.44,471.07,117.44Z"/><path class="cls-2" d="M406.5,84.51c0-5.76,3.9-9.82,9.36-9.82s9.19,4.06,9.19,9.82c0,5.61-3.58,9.82-9.35,9.82C410.25,94.33,406.5,90.12,406.5,84.51Z"/><path class="cls-2" d="M474.4,84.51c0-5.76,3.9-9.82,9.35-9.82s9.2,4.06,9.2,9.82c0,5.61-3.58,9.82-9.35,9.82C478.14,94.33,474.4,90.12,474.4,84.51Z"/></g></svg>