<svg xmlns="http://www.w3.org/2000/svg" viewBox="0 0 544.41 324.33"><defs><style>.cls-1,.cls-3{font-size:250.58px;font-family:LoftyGoals-Regular, Lofty Goals;}.cls-2{fill:#1d1d1b;}.cls-3,.cls-4{fill:#2c91e5;}</style></defs><g id="Слой_1" data-name="Слой 1"><text class="cls-1" transform="translate(8.11 237.92)">taskee</text><path d="M413.62,92.23c0-5.77,3.9-9.82,9.35-9.82s9.2,4,9.2,9.82c0,5.61-3.59,9.82-9.35,9.82C417.36,102.05,413.62,97.84,413.62,92.23Z"/><path d="M481.52,92.23c0-5.77,3.89-9.82,9.35-9.82s9.19,4,9.19,9.82c0,5.61-3.58,9.82-9.35,9.82C485.26,102.05,481.52,97.84,481.52,92.23Z"/><path class="cls-2" d="M542.88,193.2l-1.29,2.2c-.52.84-1.18,1.78-1.9,2.85l-1.16,1.7c-.4.61-.91,1.21-1.4,1.86l-1.57,2c-.28.36-.55.73-.86,1.09l-1,1.11-2.38,2.74c-.83.92-1.76,1.82-2.65,2.75-1.75,1.89-3.81,3.67-5.76,5.5-1,.89-2.07,1.74-3.09,2.61l-1.53,1.29c-.51.42-1.06.81-1.59,1.22l-3.1,2.37c-1,.76-2.09,1.47-3.08,2.17l-1.48,1c-.48.33-.95.67-1.44,1l-2.76,1.76c-1.73,1.13-3.35,2-4.68,2.83s-2.38,1.42-3.14,1.82l-1.16.62c-1.4.76-2.78,1.54-4.18,2.28l-4.28,2.16-1.07.55-1.09.51-2.19,1-2.19,1c-.36.18-.73.34-1.11.5L476.9,245a239.06,239.06,0,0,1-26.53,9.46A265.39,265.39,0,0,1,422.64,261a276,276,0,0,1-28.28,3.61l-3.54.26-3.54.17c-1.18,0-2.36.14-3.54.15l-3.53.09-1.76,0h-5.28c-1.17,0-2.35-.05-3.53-.08l-3.54-.1c-9.5-.22-18.83-.75-28.16-1.58s-18.62-1.9-27.93-3-18.66-2.32-28.11-3.37c-2.35-.27-4.73-.5-7.1-.75l-3.56-.37-3.59-.32c-2.39-.2-4.77-.43-7.18-.61l-7.25-.48-1.81-.11-1.83-.08-3.66-.15-3.65-.15c-1.22,0-2.46,0-3.69-.06-2.46,0-4.92-.07-7.39-.06l-7.44.17-1.86,0c-.62,0-1.24.07-1.86.1l-3.74.22c-2.49.16-5,.28-7.47.52s-5,.49-7.46.75-5,.6-7.42,1c-9.88,1.37-19.63,3.2-29.29,5.33s-19.21,4.62-28.65,7.38a358.62,358.62,0,0,0-54.81,20.86c-1.28.64-2.56,1.3-3.85,1.94s-2.55,1.32-3.82,2-2.54,1.34-3.78,2.06-2.5,1.39-3.73,2.13l-3.69,2.21c-1.21.76-2.4,1.54-3.61,2.31l-.9.58-.89.6-1.76,1.21c-.59.41-1.18.8-1.76,1.22l-1.71,1.27a4.19,4.19,0,0,0-.73,1.37,10.27,10.27,0,0,0-.28,1.9,9.88,9.88,0,0,0,0,1.65,6.5,6.5,0,0,0,.85,2.57,6.69,6.69,0,0,0,3.7,2.83,14.61,14.61,0,0,0,4.77.72,25.25,25.25,0,0,0,4.34-.42A1.87,1.87,0,0,0,65.6,318L67,316.92c.47-.36,1-.71,1.45-1.07l1.46-1.08.73-.54.76-.52c1-.7,2-1.4,3-2.09l3.15-2c1.06-.67,2.16-1.32,3.24-2s2.19-1.3,3.3-1.94,2.21-1.28,3.36-1.89,2.28-1.25,3.43-1.85c7.68-4,15.72-7.75,24-11.17s16.81-6.54,25.48-9.41,17.5-5.41,26.42-7.7,18-4.25,27-5.84c4.53-.8,9.08-1.47,13.62-2.06s9.1-.91,13.66-1.33c2.29-.14,4.57-.24,6.86-.36,1.15-.05,2.29-.14,3.44-.16l3.43-.06,3.45-.06c1.14,0,2.29,0,3.44,0l6.89.08c18.4.43,36.77,2.2,55.31,3.93,9.28.84,18.58,1.71,28,2.32l3.52.25,3.55.18c2.37.12,4.73.26,7.1.35l7.14.21,1.79.06h16.06l3.61-.09c1.21,0,2.41-.05,3.62-.1l3.62-.19c2.41-.1,4.82-.32,7.23-.49a278.9,278.9,0,0,0,28.69-3.89A266.62,266.62,0,0,0,472.48,250l3.22-1.38c1.06-.47,2.11-1,3.16-1.45l2.68-1.25c.37-.16.73-.34,1.09-.52l4.3-2.16,1.07-.55,1.05-.57,2.09-1.14,2.1-1.14c.7-.37,1.36-.79,2-1.19l2-1.21c.64-.39,1.44-.84,2.31-1.4l2.91-1.89,1.66-1.07c.57-.38,1.13-.79,1.72-1.2l3.69-2.59,3.77-2.87,1-.73.93-.77,1.85-1.54,1.86-1.53,1.74-1.58,1.71-1.54c.55-.51,1.12-1,1.62-1.52l2.93-2.92.69-.68.61-.68,1.17-1.29,2-2.19c.56-.66,1-1.23,1.37-1.67l.91-1.12c1.62-1.89,2.9-3.81,4.18-5.53.66-.86,1.16-1.72,1.69-2.52s1-1.56,1.46-2.27.83-1.37,1.18-2l.91-1.63c.54-1,.93-1.63,1.12-2s.2-.36,0,0Z"/><path class="cls-2" d="M293,277.23l-1.65-.32-2-.36-2.73-.49-2.86-.48c-1-.16-1.92-.33-2.85-.47l-2.68-.41-2.35-.36-1.88-.25-1.69-.24-1.62-.21-1.64-.19-3.92-.44q-9.51-1-19.18-1.44c-6.44-.3-12.92-.44-19.43-.34s-13,.38-19.57.89-13.07,1.27-19.58,2.27-13,2.24-19.4,3.83-12.71,3.44-18.88,5.63a151.13,151.13,0,0,0-17.88,7.65l-1.26.63c-.42.22-.85.42-1.25.65l-2.45,1.35-1.22.68c-.41.23-.83.44-1.21.69l-2.37,1.44a1.38,1.38,0,0,0-.28.42c-.59,1.72,0,2.64.93,3.1a5.65,5.65,0,0,0,3,.36.69.69,0,0,0,.44-.13l2.17-1.42c.35-.24.73-.45,1.11-.68l1.12-.66,2.25-1.34c.37-.23.77-.43,1.15-.64l1.17-.63A138.34,138.34,0,0,1,151,287.7a183,183,0,0,1,17.63-5.87c6-1.7,12.19-3.06,18.4-4.24s12.49-2.1,18.8-2.79,12.65-1.2,19-1.5,12.67-.38,19-.31,12.62.34,18.88.78l2.35.15,1.4.12,1.61.14c1.07.09,2.15.17,3.22.28l2.92.28c1.75.15,4.05.44,6.34.7s4.52.59,6.15.82l2.44.37,2.62.41,2.19.38,2.47.45-1.05-.2Z"/></g><g id="Слой_2" data-name="Слой 2"><text class="cls-3" transform="translate(0 240.34)">taskee</text><path class="cls-4" d="M409.51,94.66c0-5.77,3.9-9.82,9.35-9.82s9.2,4,9.2,9.82c0,5.61-3.59,9.82-9.35,9.82C413.25,104.48,409.51,100.27,409.51,94.66Z"/><path class="cls-4" d="M477.41,94.66c0-5.77,3.9-9.82,9.35-9.82s9.2,4,9.2,9.82c0,5.61-3.59,9.82-9.35,9.82C481.15,104.48,477.41,100.27,477.41,94.66Z"/><path class="cls-4" d="M535.77,198.63c-.36.61-.79,1.34-1.28,2.19s-1.19,1.78-1.91,2.86l-1.16,1.7c-.4.6-.91,1.2-1.4,1.86l-1.57,2c-.28.35-.55.72-.86,1.08l-1,1.12-2.39,2.73c-.83.92-1.76,1.83-2.65,2.76-1.75,1.88-3.81,3.66-5.75,5.49-1,.89-2.07,1.75-3.1,2.61-.51.44-1,.86-1.53,1.29s-1.06.82-1.58,1.23L506.52,230c-1,.77-2.08,1.47-3.08,2.17l-1.47,1c-.49.34-1,.67-1.45,1l-2.76,1.76c-1.72,1.14-3.35,2.06-4.68,2.84s-2.38,1.42-3.14,1.81l-1.16.63c-1.4.76-2.78,1.53-4.18,2.28l-4.28,2.16-1.07.54c-.36.18-.73.34-1.09.51l-2.19,1-2.19,1-1.1.49-2.88,1.24a241.1,241.1,0,0,1-26.53,9.46,266,266,0,0,1-27.73,6.54A270.56,270.56,0,0,1,387.26,270l-3.55.26-3.54.18c-1.18,0-2.36.13-3.53.15l-3.54.08-1.76,0h-5.28c-1.17,0-2.35,0-3.53-.07l-3.54-.11c-9.5-.22-18.83-.75-28.16-1.58s-18.62-1.9-27.93-3-18.66-2.31-28.1-3.37c-2.36-.27-4.74-.5-7.11-.75l-3.56-.37-3.59-.31c-2.39-.2-4.77-.44-7.18-.61l-7.24-.48-1.82-.12-1.83-.07-3.65-.15-3.66-.15c-1.22-.05-2.46,0-3.69-.06-2.46,0-4.91-.08-7.38-.07l-7.44.17-1.86,0c-.62,0-1.25.07-1.87.1l-3.73.23c-2.49.15-5,.27-7.48.52s-5,.49-7.46.75-5,.59-7.42,1c-9.88,1.36-19.63,3.2-29.29,5.32s-19.2,4.62-28.64,7.39a356.79,356.79,0,0,0-54.81,20.86c-1.29.63-2.57,1.29-3.86,1.93s-2.55,1.33-3.82,2-2.54,1.34-3.78,2.06-2.5,1.4-3.73,2.13l-3.68,2.21c-1.22.76-2.41,1.54-3.62,2.31l-.9.58-.88.6-1.77,1.21c-.58.41-1.18.81-1.75,1.23l-1.72,1.26a4.29,4.29,0,0,0-.73,1.37,10.52,10.52,0,0,0-.28,1.9,9.8,9.8,0,0,0,0,1.65,6.54,6.54,0,0,0,.84,2.58,6.82,6.82,0,0,0,3.7,2.83,14.63,14.63,0,0,0,4.78.72,24.12,24.12,0,0,0,4.33-.43,1.85,1.85,0,0,0,1.22-.44l1.39-1.11c.47-.37,1-.72,1.45-1.08l1.46-1.08.74-.54.76-.52c1-.69,2-1.4,3-2.09l3.15-2c1.05-.68,2.15-1.32,3.23-2s2.19-1.3,3.3-1.93,2.22-1.29,3.37-1.9,2.27-1.24,3.42-1.85c7.68-4,15.72-7.75,24-11.17s16.82-6.54,25.48-9.4,17.5-5.42,26.42-7.71,17.95-4.25,27-5.84c4.54-.79,9.08-1.46,13.62-2.05s9.1-.91,13.67-1.34c2.28-.14,4.57-.23,6.85-.36,1.15-.05,2.29-.13,3.44-.16l3.44-.06,3.44-.05c1.15,0,2.29-.05,3.44,0l6.89.08c18.4.42,36.77,2.19,55.31,3.92,9.28.85,18.59,1.72,28,2.33l3.52.24,3.55.19c2.37.11,4.73.26,7.1.35l7.14.21,1.79.05h5.35l7.13,0H364l3.61-.08c1.21,0,2.42-.05,3.62-.11l3.62-.19c2.41-.09,4.82-.31,7.23-.49a276.18,276.18,0,0,0,28.69-3.89,267.23,267.23,0,0,0,54.6-16.36l3.22-1.38c1.07-.47,2.11-1,3.17-1.46l2.67-1.24,1.09-.53,4.3-2.16,1.07-.54,1.05-.57,2.09-1.14,2.1-1.14c.7-.38,1.36-.8,2.05-1.19l2-1.22c.64-.39,1.45-.83,2.31-1.4l2.91-1.88,1.66-1.08c.57-.37,1.13-.79,1.72-1.19l3.69-2.59,3.77-2.88,1-.73.93-.76,1.86-1.55,1.85-1.53c.59-.52,1.17-1.05,1.74-1.57l1.71-1.55c.56-.51,1.12-1,1.62-1.52l2.93-2.92.69-.68c.21-.23.41-.46.62-.68l1.16-1.28,2-2.2c.56-.65,1-1.22,1.37-1.67l.91-1.12c1.62-1.89,2.9-3.8,4.18-5.53.66-.85,1.17-1.72,1.69-2.52s1-1.56,1.46-2.27.83-1.37,1.18-2,.65-1.15.91-1.63l1.13-2c.18-.34.19-.36,0,0Z"/><path class="cls-4" d="M285.92,282.66l-1.64-.32-2-.36-2.72-.5-2.87-.47c-1-.16-1.91-.33-2.84-.47l-2.69-.41-2.35-.36-1.88-.26-1.69-.23-1.62-.22-1.63-.18-3.93-.44c-6.34-.67-12.74-1.14-19.18-1.45s-12.92-.43-19.42-.33-13,.38-19.58.88-13.07,1.28-19.58,2.27-13,2.25-19.39,3.84A196.34,196.34,0,0,0,142,289.27a152.81,152.81,0,0,0-17.88,7.65l-1.26.64c-.42.21-.85.41-1.25.64l-2.45,1.36-1.22.67c-.41.23-.82.45-1.21.69l-2.37,1.45a1.69,1.69,0,0,0-.28.42c-.59,1.72,0,2.63.93,3.09a5.58,5.58,0,0,0,3,.36.62.62,0,0,0,.44-.13l2.16-1.41c.35-.24.74-.46,1.11-.68l1.12-.67,2.25-1.34c.37-.23.77-.43,1.16-.64l1.16-.63a141.58,141.58,0,0,1,16.42-7.62c5.71-2.23,11.61-4.18,17.64-5.87s12.18-3.06,18.39-4.23,12.5-2.11,18.81-2.79,12.64-1.2,19-1.5,12.67-.38,19-.31,12.61.34,18.87.77l2.35.16,1.4.12,1.61.13c1.07.1,2.15.17,3.22.29l2.92.28c1.75.15,4,.43,6.34.69s4.53.6,6.16.82l2.43.37,2.62.41,2.19.39,2.47.44-1-.19Z"/></g></svg>